<svg xmlns="http://www.w3.org/2000/svg"
     width="1024" height="1024"
     viewBox="0 0 100 100">

  <!-- Background -->
  <rect width="100" height="100" fill="#F9F7F2"/>

  <!-- Notia wordmark (from ic_launcher_foreground.xml) -->
  <g transform="translate(28,40) scale(2,2)">
    <path fill="#000000"
      d="M5.782,10.206C5.633,10.206 5.507,10.094 5.404,9.87L1.61,1.638C1.582,1.573 1.545,1.545 1.498,1.554C1.461,1.563 1.442,1.605 1.442,1.68V8.876C1.442,9.137 1.484,9.338 1.568,9.478C1.661,9.609 1.825,9.693 2.058,9.73L2.24,9.758C2.361,9.767 2.422,9.823 2.422,9.926C2.422,10.029 2.352,10.08 2.212,10.08H0.21C0.07,10.08 0,10.029 0,9.926C0,9.823 0.061,9.767 0.182,9.758L0.364,9.73C0.607,9.693 0.775,9.609 0.868,9.478C0.961,9.338 1.008,9.137 1.008,8.876V0.924C1.008,0.728 0.975,0.597 0.91,0.532C0.854,0.467 0.719,0.415 0.504,0.378L0.182,0.322C0.061,0.294 0,0.238 0,0.154C0,0.051 0.07,-0 0.21,-0H1.708C1.941,-0 2.105,0.103 2.198,0.308L5.502,7.574C5.53,7.63 5.563,7.653 5.6,7.644C5.647,7.635 5.67,7.602 5.67,7.546V1.204C5.67,0.905 5.619,0.7 5.516,0.588C5.413,0.467 5.283,0.392 5.124,0.364L4.872,0.322C4.751,0.294 4.69,0.238 4.69,0.154C4.69,0.051 4.76,-0 4.9,-0H6.902C7.042,-0 7.112,0.051 7.112,0.154C7.112,0.257 7.051,0.313 6.93,0.322L6.748,0.35C6.505,0.387 6.337,0.467 6.244,0.588C6.151,0.7 6.104,0.905 6.104,1.204V9.758C6.104,9.926 6.071,10.043 6.006,10.108C5.95,10.173 5.875,10.206 5.782,10.206ZM9.932,10.206C9.456,10.206 9.027,10.047 8.644,9.73C8.271,9.403 7.972,8.96 7.748,8.4C7.524,7.84 7.412,7.215 7.412,6.524C7.412,5.833 7.524,5.213 7.748,4.662C7.972,4.111 8.276,3.673 8.658,3.346C9.041,3.019 9.466,2.856 9.932,2.856C10.408,2.856 10.833,3.019 11.207,3.346C11.589,3.673 11.892,4.111 12.116,4.662C12.34,5.213 12.453,5.833 12.453,6.524C12.453,7.215 12.34,7.84 12.116,8.4C11.902,8.96 11.603,9.403 11.22,9.73C10.838,10.047 10.408,10.206 9.932,10.206ZM9.932,9.856C10.903,9.856 11.389,8.745 11.389,6.524C11.389,4.312 10.903,3.206 9.932,3.206C8.962,3.206 8.476,4.312 8.476,6.524C8.476,8.745 8.962,9.856 9.932,9.856ZM14.863,10.206C14.537,10.206 14.266,10.094 14.051,9.87C13.846,9.637 13.743,9.259 13.743,8.736V3.5C13.743,3.388 13.687,3.332 13.575,3.332H13.169C13.02,3.332 12.945,3.276 12.945,3.164C12.945,3.089 12.987,3.024 13.071,2.968C13.379,2.753 13.627,2.525 13.813,2.282C14,2.03 14.163,1.689 14.303,1.26C14.369,1.064 14.448,0.966 14.541,0.966C14.644,0.966 14.695,1.041 14.695,1.19V2.744C14.695,2.875 14.761,2.94 14.891,2.94H15.801C15.951,2.94 16.025,3.005 16.025,3.136C16.025,3.267 15.951,3.332 15.801,3.332H14.891C14.761,3.332 14.695,3.397 14.695,3.528V8.75C14.695,8.955 14.728,9.119 14.793,9.24C14.859,9.352 14.98,9.408 15.157,9.408C15.353,9.408 15.512,9.31 15.633,9.114C15.764,8.918 15.848,8.601 15.885,8.162C15.904,8.031 15.965,7.966 16.067,7.966C16.179,7.966 16.235,8.036 16.235,8.176C16.207,8.895 16.058,9.413 15.787,9.73C15.526,10.047 15.218,10.206 14.863,10.206ZM18.024,1.61C17.828,1.61 17.66,1.54 17.52,1.4C17.39,1.26 17.324,1.083 17.324,0.868C17.324,0.653 17.39,0.481 17.52,0.35C17.66,0.21 17.828,0.14 18.024,0.14C18.22,0.14 18.384,0.21 18.514,0.35C18.645,0.481 18.71,0.653 18.71,0.868C18.71,1.083 18.645,1.26 18.514,1.4C18.384,1.54 18.22,1.61 18.024,1.61ZM16.848,10.08C16.708,10.08 16.638,10.029 16.638,9.926C16.638,9.842 16.699,9.786 16.82,9.758L16.988,9.73C17.222,9.693 17.371,9.637 17.436,9.562C17.502,9.478 17.534,9.338 17.534,9.142V4.438C17.534,4.27 17.506,4.158 17.45,4.102C17.404,4.037 17.315,3.995 17.184,3.976L16.89,3.934C16.769,3.925 16.708,3.873 16.708,3.78C16.708,3.705 16.783,3.654 16.932,3.626C17.222,3.579 17.455,3.505 17.632,3.402C17.81,3.299 17.982,3.173 18.15,3.024C18.234,2.94 18.304,2.898 18.36,2.898C18.444,2.898 18.486,2.954 18.486,3.066V9.142C18.486,9.338 18.514,9.478 18.57,9.562C18.626,9.646 18.734,9.697 18.892,9.716L19.242,9.758C19.345,9.777 19.396,9.828 19.396,9.912C19.396,10.024 19.326,10.08 19.186,10.08H16.848ZM21.226,10.206C20.833,10.206 20.511,10.085 20.26,9.842C20.007,9.59 19.882,9.259 19.882,8.848C19.882,8.447 20.007,8.069 20.26,7.714C20.511,7.35 20.857,7.023 21.295,6.734C21.734,6.445 22.233,6.211 22.794,6.034C22.915,5.997 22.976,5.917 22.976,5.796V4.522C22.976,4.074 22.906,3.757 22.765,3.57C22.625,3.374 22.434,3.276 22.191,3.276C21.958,3.276 21.743,3.383 21.548,3.598C21.361,3.803 21.226,4.153 21.142,4.648C21.095,4.947 20.992,5.166 20.833,5.306C20.684,5.437 20.53,5.502 20.372,5.502C20.11,5.502 19.979,5.371 19.979,5.11C19.979,4.839 20.054,4.573 20.204,4.312C20.362,4.041 20.567,3.799 20.819,3.584C21.072,3.36 21.347,3.183 21.646,3.052C21.944,2.921 22.243,2.856 22.542,2.856C23.465,2.856 23.927,3.393 23.927,4.466V8.75C23.927,9.142 24.025,9.338 24.222,9.338C24.343,9.338 24.455,9.259 24.558,9.1C24.66,8.932 24.712,8.652 24.712,8.26C24.712,8.111 24.772,8.036 24.893,8.036C25.006,8.036 25.062,8.115 25.062,8.274C25.062,8.955 24.94,9.45 24.698,9.758C24.464,10.057 24.198,10.206 23.899,10.206C23.676,10.206 23.498,10.117 23.368,9.94C23.237,9.753 23.148,9.534 23.101,9.282C23.092,9.189 23.05,9.142 22.976,9.142C22.91,9.133 22.845,9.175 22.779,9.268C22.556,9.576 22.327,9.809 22.094,9.968C21.86,10.127 21.571,10.206 21.226,10.206ZM21.604,9.562C21.846,9.562 22.07,9.478 22.275,9.31C22.481,9.133 22.649,8.899 22.779,8.61C22.91,8.321 22.976,7.994 22.976,7.63V6.608C22.976,6.431 22.878,6.379 22.681,6.454C22.112,6.659 21.669,6.944 21.351,7.308C21.044,7.663 20.889,8.092 20.889,8.596C20.889,9.24 21.128,9.562 21.604,9.562Z"/>
  </g>
</svg>
